<svg width="30" height="16" viewBox="0 0 30 16" fill="none" xmlns="http://www.w3.org/2000/svg">
<path opacity="0.5" d="M6.41016 8.08594V9H1.9043H0.990234V0.46875H2.12695H6.35156V1.38867H2.12695V4.13672H5.8125V5.05078H2.12695V8.08594H6.41016ZM14.4023 2.54297C15.0977 2.54297 15.625 2.72852 15.9844 3.09961C16.3438 3.4707 16.5234 4.04883 16.5234 4.83398V9H15.4277V4.82227C15.4277 4.31836 15.3125 3.96484 15.082 3.76172C14.8555 3.55469 14.5215 3.45117 14.0801 3.45117C13.7988 3.45117 13.5527 3.51172 13.3418 3.63281C13.1309 3.75 12.9648 3.91016 12.8438 4.11328C12.7266 4.31641 12.6543 4.54492 12.627 4.79883V9H11.5312V4.82812C11.5312 3.91016 11.0801 3.45117 10.1777 3.45117C9.81445 3.45117 9.51367 3.53125 9.27539 3.69141C9.03711 3.84766 8.85547 4.06641 8.73047 4.34766V9H7.63477V2.66016H8.67188L8.70703 3.3457C8.92578 3.08789 9.19141 2.89062 9.50391 2.75391C9.81641 2.61328 10.1738 2.54297 10.5762 2.54297C10.9941 2.54297 11.3594 2.62695 11.6719 2.79492C11.9883 2.95898 12.2266 3.21094 12.3867 3.55078C12.6055 3.23828 12.8848 2.99219 13.2246 2.8125C13.5684 2.63281 13.9609 2.54297 14.4023 2.54297ZM22.998 7.61719C22.998 7.83984 23.0176 8.07031 23.0566 8.30859C23.0957 8.54297 23.1504 8.74219 23.2207 8.90625V9H22.0781C22.0117 8.84766 21.9609 8.62695 21.9258 8.33789C21.707 8.57227 21.4434 8.76172 21.1348 8.90625C20.8301 9.04688 20.4941 9.11719 20.127 9.11719C19.7051 9.11719 19.3301 9.03516 19.002 8.87109C18.6777 8.70312 18.4258 8.47656 18.2461 8.19141C18.0703 7.90625 17.9824 7.58984 17.9824 7.24219C17.9824 6.79297 18.0977 6.41211 18.3281 6.09961C18.5625 5.78711 18.8926 5.55273 19.3184 5.39648C19.748 5.23633 20.2539 5.15625 20.8359 5.15625H21.9023V4.65234C21.9023 4.26562 21.7871 3.96289 21.5566 3.74414C21.3301 3.52148 21.002 3.41016 20.5723 3.41016C20.3105 3.41016 20.0762 3.45703 19.8691 3.55078C19.6621 3.64062 19.5 3.76367 19.3828 3.91992C19.2695 4.07227 19.2129 4.23828 19.2129 4.41797H18.1172C18.1172 4.10938 18.2227 3.81055 18.4336 3.52148C18.6445 3.23242 18.9414 2.99805 19.3242 2.81836C19.707 2.63477 20.1445 2.54297 20.6367 2.54297C21.1055 2.54297 21.5156 2.62305 21.8672 2.7832C22.2227 2.93945 22.5 3.17773 22.6992 3.49805C22.8984 3.81445 22.998 4.20312 22.998 4.66406V7.61719ZM20.2852 8.17969C20.5352 8.17969 20.7676 8.13672 20.9824 8.05078C21.2012 7.96094 21.3887 7.84375 21.5449 7.69922C21.7012 7.55469 21.8203 7.39844 21.9023 7.23047V5.91797H21.0117C20.3867 5.91797 19.9082 6.01758 19.5762 6.2168C19.2441 6.41211 19.0781 6.70312 19.0781 7.08984C19.0781 7.29688 19.125 7.48242 19.2188 7.64648C19.3125 7.81055 19.4492 7.94141 19.6289 8.03906C19.8086 8.13281 20.0273 8.17969 20.2852 8.17969ZM25.3535 0.351562C25.5566 0.351562 25.7148 0.410156 25.8281 0.527344C25.9453 0.644531 26.0039 0.792969 26.0039 0.972656C26.0039 1.14844 25.9453 1.29492 25.8281 1.41211C25.7148 1.52539 25.5566 1.58203 25.3535 1.58203C25.1504 1.58203 24.9922 1.52539 24.8789 1.41211C24.7695 1.29492 24.7148 1.14844 24.7148 0.972656C24.7148 0.792969 24.7695 0.644531 24.8789 0.527344C24.9922 0.410156 25.1504 0.351562 25.3535 0.351562ZM24.7969 9V2.66016H25.8926V9H24.7969ZM27.7148 9V0H28.8105V9H27.7148Z" fill="white"/>
</svg>
