<svg width="44" height="20" viewBox="0 0 44 20" fill="none" xmlns="http://www.w3.org/2000/svg">
<path d="M7.60156 10.375V12H1.625H0.140625V0.625H2.16406H7.55469V2.25781H2.16406V5.34375H6.8125V6.9375H2.16406V10.375H7.60156ZM13.3281 3.39062C14.1875 3.39062 14.849 3.64062 15.3125 4.14062C15.7812 4.63542 16.0156 5.4375 16.0156 6.54688V12H14.0703V6.53125C14.0703 5.96875 13.9479 5.57031 13.7031 5.33594C13.4635 5.09635 13.0938 4.97656 12.5938 4.97656C12.2292 4.97656 11.9036 5.0651 11.6172 5.24219C11.3307 5.41927 11.1016 5.66667 10.9297 5.98438V12H8.98438V3.54688H10.8125L10.875 4.52344C11.1771 4.15885 11.5365 3.88021 11.9531 3.6875C12.3698 3.48958 12.8281 3.39062 13.3281 3.39062ZM21.2109 10.5469C21.4193 10.5469 21.6406 10.5208 21.875 10.4688V11.9688C21.5 12.0938 21.0781 12.1562 20.6094 12.1562C19.9219 12.1562 19.3802 11.9661 18.9844 11.5859C18.5885 11.2057 18.3906 10.599 18.3906 9.76562V4.98438H17.0156V3.54688H18.3906V1.48438H20.3359V3.54688H21.8203V4.98438H20.3359V9.63281C20.3359 9.98698 20.4089 10.2292 20.5547 10.3594C20.7005 10.4844 20.9193 10.5469 21.2109 10.5469ZM27.0625 3.39062C27.1719 3.39062 27.2943 3.40104 27.4297 3.42188C27.5703 3.44271 27.6745 3.46615 27.7422 3.49219L27.7266 5.32812C27.4661 5.28646 27.2083 5.26562 26.9531 5.26562C26.0833 5.26562 25.5 5.59115 25.2031 6.24219V12H23.2578V3.54688H25.1094L25.1641 4.5C25.3776 4.14583 25.6432 3.8724 25.9609 3.67969C26.2786 3.48698 26.6458 3.39062 27.0625 3.39062ZM35.4688 10.0312C35.4688 10.8021 35.5755 11.4141 35.7891 11.8672V12H33.8047C33.7214 11.8177 33.6484 11.5547 33.5859 11.2109C33.3203 11.4974 33.0026 11.7266 32.6328 11.8984C32.263 12.0703 31.8438 12.1562 31.375 12.1562C30.8229 12.1562 30.3281 12.0469 29.8906 11.8281C29.4531 11.6094 29.112 11.3073 28.8672 10.9219C28.6224 10.5365 28.5 10.1042 28.5 9.625C28.5 8.72396 28.8333 8.03385 29.5 7.55469C30.1719 7.07552 31.1224 6.83594 32.3516 6.83594H33.5234V6.28906C33.5234 5.84115 33.401 5.49219 33.1562 5.24219C32.9115 4.98698 32.5495 4.85938 32.0703 4.85938C31.7839 4.85938 31.5312 4.90885 31.3125 5.00781C31.0938 5.10677 30.9245 5.24219 30.8047 5.41406C30.6849 5.58594 30.625 5.77865 30.625 5.99219H28.6797C28.6797 5.53906 28.8229 5.11458 29.1094 4.71875C29.401 4.31771 29.8125 3.9974 30.3438 3.75781C30.8802 3.51302 31.4922 3.39062 32.1797 3.39062C32.8255 3.39062 33.3958 3.5 33.8906 3.71875C34.3854 3.9375 34.7708 4.26562 35.0469 4.70312C35.3281 5.14062 35.4688 5.67448 35.4688 6.30469V10.0312ZM31.75 10.6016C32.1562 10.6016 32.5156 10.5052 32.8281 10.3125C33.1458 10.1198 33.3776 9.88802 33.5234 9.61719V8.03906H32.5078C31.8307 8.03906 31.3177 8.16146 30.9688 8.40625C30.6198 8.65104 30.4453 8.99479 30.4453 9.4375C30.4453 9.78125 30.5599 10.0625 30.7891 10.2812C31.0182 10.4948 31.3385 10.6016 31.75 10.6016ZM41.2344 3.39062C41.3438 3.39062 41.4661 3.40104 41.6016 3.42188C41.7422 3.44271 41.8464 3.46615 41.9141 3.49219L41.8984 5.32812C41.638 5.28646 41.3802 5.26562 41.125 5.26562C40.2552 5.26562 39.6719 5.59115 39.375 6.24219V12H37.4297V3.54688H39.2812L39.3359 4.5C39.5495 4.14583 39.8151 3.8724 40.1328 3.67969C40.4505 3.48698 40.8177 3.39062 41.2344 3.39062Z" fill="#B22E6F"/>
</svg>
