<svg width="34" height="16" viewBox="0 0 34 16" fill="none" xmlns="http://www.w3.org/2000/svg">
<path opacity="0.5" d="M3.50391 5.18555C2.60156 4.92383 1.91602 4.59766 1.44727 4.20703C0.978516 3.8125 0.744141 3.30078 0.744141 2.67188C0.744141 2.23047 0.863281 1.83398 1.10156 1.48242C1.34375 1.13086 1.68359 0.855469 2.12109 0.65625C2.5625 0.453125 3.06836 0.351562 3.63867 0.351562C4.25977 0.351562 4.79688 0.470703 5.25 0.708984C5.70703 0.947266 6.05469 1.26367 6.29297 1.6582C6.53516 2.05273 6.65625 2.47656 6.65625 2.92969H5.51367C5.51367 2.42969 5.35547 2.0293 5.03906 1.72852C4.72266 1.42383 4.25586 1.27148 3.63867 1.27148C3.06445 1.27148 2.62891 1.39844 2.33203 1.65234C2.03516 1.90625 1.88672 2.24023 1.88672 2.6543C1.88672 2.89648 1.95508 3.10938 2.0918 3.29297C2.22852 3.47656 2.44141 3.64258 2.73047 3.79102C3.01953 3.93945 3.40039 4.08008 3.87305 4.21289C4.5293 4.39648 5.06055 4.60742 5.4668 4.8457C5.87695 5.08398 6.17969 5.36523 6.375 5.68945C6.57422 6.00977 6.67383 6.39062 6.67383 6.83203C6.67383 7.28906 6.55078 7.69141 6.30469 8.03906C6.0625 8.38281 5.7168 8.64844 5.26758 8.83594C4.81836 9.02344 4.29492 9.11719 3.69727 9.11719C3.1543 9.11719 2.63477 9.01758 2.13867 8.81836C1.64648 8.61523 1.24609 8.31836 0.9375 7.92773C0.628906 7.53711 0.474609 7.07031 0.474609 6.52734H1.61133C1.61133 6.90234 1.70508 7.21484 1.89258 7.46484C2.08398 7.71484 2.33594 7.90039 2.64844 8.02148C2.96484 8.14258 3.31445 8.20312 3.69727 8.20312C4.2793 8.20312 4.73047 8.08203 5.05078 7.83984C5.37109 7.59766 5.53125 7.26562 5.53125 6.84375C5.53125 6.56641 5.47266 6.33594 5.35547 6.15234C5.24219 5.96484 5.04102 5.79688 4.75195 5.64844C4.46289 5.49609 4.04688 5.3418 3.50391 5.18555ZM13.0547 6.12891H8.76562C8.77734 6.52344 8.85938 6.88086 9.01172 7.20117C9.16406 7.52148 9.37891 7.77539 9.65625 7.96289C9.9375 8.14648 10.2656 8.23828 10.6406 8.23828C11.0078 8.23828 11.3242 8.16406 11.5898 8.01562C11.8594 7.86719 12.0996 7.6543 12.3105 7.37695L12.9727 7.89258C12.7383 8.25195 12.4258 8.54688 12.0352 8.77734C11.6445 9.00391 11.1602 9.11719 10.582 9.11719C10.0039 9.11719 9.49414 8.98633 9.05273 8.72461C8.61133 8.46289 8.26953 8.09961 8.02734 7.63477C7.78906 7.16992 7.66992 6.64258 7.66992 6.05273V5.80078C7.66992 5.14062 7.79883 4.56445 8.05664 4.07227C8.31445 3.57617 8.6543 3.19727 9.07617 2.93555C9.50195 2.67383 9.95703 2.54297 10.4414 2.54297C11.0312 2.54297 11.5195 2.67578 11.9062 2.94141C12.2969 3.20312 12.5859 3.56641 12.7734 4.03125C12.9609 4.49609 13.0547 5.0332 13.0547 5.64258V6.12891ZM11.959 5.16797C11.9277 4.67188 11.793 4.25781 11.5547 3.92578C11.3203 3.58984 10.9492 3.42188 10.4414 3.42188C10.0039 3.42188 9.63867 3.58203 9.3457 3.90234C9.05664 4.21875 8.875 4.66797 8.80078 5.25H11.959V5.16797ZM17.2793 2.54297C18.6348 2.54297 19.3125 3.31055 19.3125 4.8457V9H18.2168V4.83398C18.2168 4.34961 18.1113 3.99805 17.9004 3.7793C17.6934 3.56055 17.3789 3.45117 16.957 3.45117C16.6211 3.45117 16.3184 3.54297 16.0488 3.72656C15.7832 3.91016 15.5723 4.15625 15.416 4.46484V9H14.3203V2.66016H15.3574L15.3926 3.43945C15.623 3.1543 15.8984 2.93359 16.2188 2.77734C16.5391 2.62109 16.8926 2.54297 17.2793 2.54297ZM23.9121 2.54297C25.2676 2.54297 25.9453 3.31055 25.9453 4.8457V9H24.8496V4.83398C24.8496 4.34961 24.7441 3.99805 24.5332 3.7793C24.3262 3.56055 24.0117 3.45117 23.5898 3.45117C23.2539 3.45117 22.9512 3.54297 22.6816 3.72656C22.416 3.91016 22.2051 4.15625 22.0488 4.46484V9H20.9531V0H22.0488V3.41016C22.2793 3.13281 22.5527 2.91992 22.8691 2.77148C23.1855 2.61914 23.5332 2.54297 23.9121 2.54297ZM32.3965 7.61719C32.3965 7.83984 32.416 8.07031 32.4551 8.30859C32.4941 8.54297 32.5488 8.74219 32.6191 8.90625V9H31.4766C31.4102 8.84766 31.3594 8.62695 31.3242 8.33789C31.1055 8.57227 30.8418 8.76172 30.5332 8.90625C30.2285 9.04688 29.8926 9.11719 29.5254 9.11719C29.1035 9.11719 28.7285 9.03516 28.4004 8.87109C28.0762 8.70312 27.8242 8.47656 27.6445 8.19141C27.4688 7.90625 27.3809 7.58984 27.3809 7.24219C27.3809 6.79297 27.4961 6.41211 27.7266 6.09961C27.9609 5.78711 28.291 5.55273 28.7168 5.39648C29.1465 5.23633 29.6523 5.15625 30.2344 5.15625H31.3008V4.65234C31.3008 4.26562 31.1855 3.96289 30.9551 3.74414C30.7285 3.52148 30.4004 3.41016 29.9707 3.41016C29.709 3.41016 29.4746 3.45703 29.2676 3.55078C29.0605 3.64062 28.8984 3.76367 28.7812 3.91992C28.668 4.07227 28.6113 4.23828 28.6113 4.41797H27.5156C27.5156 4.10938 27.6211 3.81055 27.832 3.52148C28.043 3.23242 28.3398 2.99805 28.7227 2.81836C29.1055 2.63477 29.543 2.54297 30.0352 2.54297C30.5039 2.54297 30.9141 2.62305 31.2656 2.7832C31.6211 2.93945 31.8984 3.17773 32.0977 3.49805C32.2969 3.81445 32.3965 4.20312 32.3965 4.66406V7.61719ZM29.6836 8.17969C29.9336 8.17969 30.166 8.13672 30.3809 8.05078C30.5996 7.96094 30.7871 7.84375 30.9434 7.69922C31.0996 7.55469 31.2188 7.39844 31.3008 7.23047V5.91797H30.4102C29.7852 5.91797 29.3066 6.01758 28.9746 6.2168C28.6426 6.41211 28.4766 6.70312 28.4766 7.08984C28.4766 7.29688 28.5234 7.48242 28.6172 7.64648C28.7109 7.81055 28.8477 7.94141 29.0273 8.03906C29.207 8.13281 29.4258 8.17969 29.6836 8.17969Z" fill="white"/>
</svg>
